<svg xmlns="http://www.w3.org/2000/svg" width="493.2" height="178.6" viewBox="0 0 493.2 178.6"><g fill-rule="evenodd" clip-rule="evenodd"><path d="M1.8 161.9h2.8l2.8 9.8 2.8-9.8h2.7l2.7 9.8h.1l2.7-9.8h2.8l-4.2 14.3h-2.7l-2.7-10.2h-.1l-2.7 10.2h-2.8l-4.2-14.3zM33.8 161.5c6.3 0 8.5 3.7 8.5 7.6 0 3-1.8 7.4-8.5 7.4-6.8 0-8.5-4.4-8.5-7.4 0-3.9 2.2-7.6 8.5-7.6zm5.8 7.5c0-3.5-2.5-5.1-5.7-5.1s-5.7 1.6-5.7 5.1c0 4.1 3.1 5.2 5.7 5.2s5.7-1.1 5.7-5.2zM47.8 161.9h8.6c3.4 0 5.8.8 5.8 4.3 0 2.6-1.9 4.1-4 4.2l4.4 5.8h-3.5l-4.2-5.6h-4.4v5.6h-2.8v-14.3h.1zm8.2 6.3c2.3 0 3.5-.3 3.5-2s-1.2-2-3.5-2h-5.4v4h5.4zM68.3 161.9h2.8v11.8h10.4v2.5h-13.2v-14.3zM86.6 161.9h6.9c4.5 0 8.2 1.9 8.2 7.1 0 4.9-3.3 7.3-8.1 7.3h-7v-14.4zm5.7 11.9c4.8 0 6.6-1.5 6.6-4.8 0-3.5-1.9-4.7-6.6-4.7h-2.8v9.5h2.8zM122.3 164.3h-6.4v-2.4h15.6v2.4h-6.4v11.9h-2.8v-11.9zM139.6 161.9h3.2l7 14.3h-3l-1.5-3.3h-8.3l-1.5 3.3h-3l7.1-14.3zm4.6 8.6l-3-6.4-3 6.4h6zM154.5 161.9h12.9v2.4h-10.1v3.3h8.7v2.4h-8.7v3.8h10.3v2.4h-13.1v-14.3zM173.2 161.9h2.9v6.7l7.9-6.7h4l-6.9 5.6 7.6 8.7h-3.7l-5.9-7-3 2.6v4.4h-2.9v-14.3zM192 161.9h2.8l2.8 9.8 2.8-9.8h2.7l2.8 9.8 2.7-9.8h2.8l-4.2 14.3h-2.7l-2.7-10.2h-.1l-2.7 10.2h-2.7l-4.3-14.3zM224 161.5c6.3 0 8.5 3.7 8.5 7.6 0 3-1.8 7.4-8.5 7.4-6.8 0-8.5-4.4-8.5-7.4 0-3.9 2.2-7.6 8.5-7.6zm5.8 7.5c0-3.5-2.5-5.1-5.7-5.1-3.3 0-5.7 1.6-5.7 5.1 0 4.1 3.1 5.2 5.7 5.2s5.7-1.1 5.7-5.2zM238 161.9h3l9.6 10.3v-10.3h2.6v14.3h-2.5l-10-10.7v10.7h-2.7v-14.3zM259.6 161.9h6.9c4.5 0 8.2 1.9 8.2 7.1 0 4.9-3.3 7.3-8.1 7.3h-7v-14.4zm5.6 11.9c4.8 0 6.6-1.5 6.6-4.8 0-3.5-1.9-4.7-6.6-4.7h-2.8v9.5h2.8zM287.7 161.5c6.3 0 8.5 3.7 8.5 7.6 0 3-1.8 7.4-8.5 7.4-6.8 0-8.5-4.4-8.5-7.4 0-3.9 2.2-7.6 8.5-7.6zm5.8 7.5c0-3.5-2.5-5.1-5.7-5.1-3.3 0-5.7 1.6-5.7 5.1 0 4.1 3.1 5.2 5.7 5.2s5.7-1.1 5.7-5.2zM311.8 161.9h13.2v2.4h-10.4v3.3h8.9v2.4h-8.9v6.2h-2.8v-14.3zM330.1 161.9h12.9v2.4h-10.1v3.3h8.7v2.4h-8.7v3.8h10.3v2.4h-13.1v-14.3zM348.4 161.9h6.9c4.5 0 8.2 1.9 8.2 7.1 0 4.9-3.3 7.3-8.1 7.3h-7v-14.4zm5.6 11.9c4.8 0 6.6-1.5 6.6-4.8 0-3.5-1.9-4.7-6.6-4.7h-2.8v9.5h2.8zM368.9 161.9h12.9v2.4h-10.1v3.3h8.7v2.4h-8.7v3.8h10.3v2.4h-13.1v-14.3zM387.2 161.9h8.6c3.4 0 5.8.8 5.8 4.3 0 2.6-1.9 4.1-4 4.2l4.4 5.8h-3.5l-4.2-5.6h-4.3v5.6h-2.8v-14.3zm8.2 6.3c2.3 0 3.5-.3 3.5-2s-1.2-2-3.5-2h-5.4v4h5.4zM413.2 161.9h3.2l7 14.3h-3l-1.5-3.3h-8.3l-1.5 3.3h-3l7.1-14.3zm4.6 8.6l-3-6.4-3 6.4h6zM430.8 164.3h-6.4v-2.4h15.6v2.4h-6.4v11.9h-2.8v-11.9zM445.2 161.9h2.8v14.3h-2.8v-14.3zM462.2 161.5c6.3 0 8.5 3.7 8.5 7.6 0 3-1.8 7.4-8.5 7.4-6.8 0-8.5-4.4-8.5-7.4-.1-3.9 2.2-7.6 8.5-7.6zm5.7 7.5c0-3.5-2.5-5.1-5.7-5.1-3.3 0-5.7 1.6-5.7 5.1 0 4.1 3.1 5.2 5.7 5.2 2.7 0 5.7-1.1 5.7-5.2zM476.2 161.9h2.9l9.6 10.3v-10.3h2.7v14.3h-2.6l-10-10.7v10.7h-2.6v-14.3z"/><path fill="#0070B7" d="M334.6 45.3l-16 27.2h116.3l16.1-27.2h-116.4zM314.6 79.3l-28.8 48.8h42.9l12.8-21.6h52.6l16.1-27.2h-95.6z"/><path fill="#FDCC00" d="M113.5 81.8l21.6-36.5h-35.5l-42.9 72.6 56.8-36.1zM216.1 45.3h-35.4l-27.6 46.7-9.1-23.3-93.2 59.4h35.4l36.5-23.3 9.1 23.3h35.4l48.9-82.8z"/><path fill="#E20F2F" d="M192.4 6.5c.4.3.6.6.9.6 1.3.7 7.1 5.8 7.1 5.8 1.1 2.1.8 5.2 1.1 5.7 1 2.1.1 4.7.7 6.9.3.6-.3.9-.3 1.4-.3.7-.6 4.8-1 6.2-1.1.4-.9 1.8-.9 2.8l.1 1.7c1 0 6.2-4.8 6.8-5.4 2.1-1.4 6.7-4.5 7.8-4.3 1-.9 2.4-1 3.4-1.4.6.3 4.8-1.4 5.4-1.4.4-.3 7.4-2 8.1-2 2.1.1 3.5-.8 5.7-1 .7-.4 3.5-.7 4.1-1 1.8.1 3.5-.8 5.4-.4l2-.6c1.1-.4 2.3.1 3.4-.4 1 0 6.5-.1 7.5-.7.4.3 3.3-.6 4.4-.7 1.6-.5 18.6-1.3 20.6-1.1.8-.4 12.3-.3 14.6-.3 1.7 0 5.2.2 6.4.6 1.8 0 10.5 1.3 12.3 1.4 1.2 0 2.3.1 2.7 1.3.8.1 1.6.4 2.1.7.3.3-.3.6-.3.8-2.7-.6-4.7-.1-7.2-.4-.7.6-1.1-.1-1.8.3-1.4-.4-3.4.6-4.8-.1-.1.7-1.1.4-1.6.6-3.3-.1-6.7.7-10.2 1-.1-.3-3.4 0-5 .4-1.4.6-3 .6-4.3.8-3.8-.1-6.7 1.4-10.3 1.4-1.4.6-3 .9-4.5 1.1-1.7.1-3.5.8-5.4 1.3-2.6.6-5.4 1-7.9 2 .8.6 4.4.6 5.2.1 1.1.4 13.6 2 15.6 1.7 1.6.3 9.6.7 10.5 1.6.8 0 1.8.1 2.4.4 1.8-.4 3.3 1.3 5.1.8 1.4.7 3.1.4 4.5.7 2.1.5 4.4 1.3 4.8 1.4 3.3.9 6.1.7 8.9 2.3.8.6 17.3 5.8 17.6 5.8 4.9 1.4 10.8 5.5 12 6.8.8.8 4.9 4.9 6.3 6.1 1.8.4 7.8 6.4 8.9 7.2.3 1.1 2.1 1.8.9 3-1.6-1.3-3.8-2.4-5.8-3-1.4-.7-3.1-1.3-4.4-1.6-2-.7-3.7-1.1-5.7-1.7-1 0-1.8-.9-2.8-.6-.7-.6-2.1-.3-3.1-.7-1.1-.3-2.3-.6-3.3-1-1.3 0-2.8-.6-4.1-.7-.6-.3-1.4-.3-2-.3l-4.1-1.1c-1 .3-2.1-.3-3.1-.3-.8 0-1.4-.3-2.1-.4-.4 0-1 .1-1.4-.3-2.4-.3-4.5-.6-6.9-.8-.1-.6-.6-.1-.9-.1-.7-.3-1.7.1-2.1-.6-.1.4-.9.3-1.1.1-2.7-.7-5.2-.1-7.7-1.1-1.3.3-2.6-.1-3.8-.1l-.1-.1c-1.1.7-2.1-.4-3.4.1-4.5-.3-9.1-.4-13.8-.3-.7.6-1.4-.4-2.3.3-1.8 0-4.1.1-6 .1l-.9.1c-.4.6-.1 1.6.3 2.3-.4 2.6 2.8 3.7 2.3 6.4.3 2 1.3 3.7.6 5.7 0 0 .3 3.3-1 4.1 0 .6-.6 1-1.1 1.1-.4.1-5 4.1-6.1 4.4-.1.3-.3.6-.6.7-.9 1-1.3 2.4-2.6 2.7-.9 1.3-1.7 2.4-2.7 3.4-1.6.1-1 2.4-2.7 2.7-.4 1-3.1 4.7-4.3 4.4-.6 1.1-1.3 2.7-2.6 3.3-1.3 3-4.1 4.5-6.1 6.7-.7-.3-3 4.4-4 5-.6.7-.9 2-1.7 2.1-.7 1.1-2 1.8-2.3 3-.4.1-5.2 4.8-5.5 6-.3 1.6-1.8 1.4-2.3 2.8-.4.3-.7 1.4-1.6 1.6 0 .8-.9 1.3-1.1 1.8-.9.8-1.1 2.4-2.4 2.7 0 1.6-2.8 3.1-5 5.5 0 .6-6.7 6.2-6.9 8.9-.7.6-.8 2-2 1.7-.6 1.7-1.6 3.3-3 4.3-.4.3-.9.9-1.1.6l-.3-.3c1.8-3.1 3.1-6.5 4.5-9.8.7 0 0-.4.4-.7 1.4-2.6 2.3-5.1 3.8-7.5.7-2.3 2.3-4.3 3.1-6.4-.1-.1-.3-.4-.6-.3 0 1.4-1.7 2-2.1 3.3-.7.1-3 3.5-4.3 3.7.1 1-1.6 1.1-1.6 1.1.9-1.8 6-10.5 6.4-10.8.8-1.7 14.7-23 15.7-24.8 1.8-2.4 3.4-5.1 5.1-7.7.3-.3 11.9-17.2 12.3-17.4.7-.7 1.1-1.6 1.7-2.3 0 0 .1 0 .1.1 2.6-4.1 6.7-7.9 9.8-11.9l.3-.8c-1-.1-2.1 0-3.1.1-1.7.6-5.7.9-5.7.9-2.4.6-4.7 1.3-7.1 1.7-.1-.4-.3 0-.4 0-1.3.1-1.6.3-2.8.7-.3 0-1 .1-1 .3-1.6 0-3.4 1-5 1.3-1.1-.1-1.8.6-3 .4-.6.3-1.3.6-1.8.4-2.6.9-5.4 1.6-8.2 2.3l-.9.3c0-.7-.4.1-.7.1-1.8.4-3.8 1.1-5.8 1-.4.1-2.7.4-3.3 1-2.7 1.4-5.8 1-8.1 2.4-.9-.1-2.6 1-2.6 1-.8-.4-1.8.6-2.7.9-.9.1-1.4.4-2.3.7l-2.8 1c-1 1-3 1-4.1 2.3-1 .3-1.8 1.8-3.1.7-.4-.6-.4-1.1-.3-1.8.1 0 .4-2.7.7-3.7.3-2.4 1.6-4.7 2-7.1-.7 0-1.6.6-2 1.1 0-.9-.1-1.7.1-2.6-.6-.1-.4-.7-.4-1.1.1-1 .4-2.1.6-3.3.9-1.3.6-3.1 1.6-4.3.4-1.1.6-2.4 1.1-3.4 1.1-.7 1.3-2 1.6-3.1 0 0 .4-1.1.4-1.4.4-1.1 2-.7 2-2-1.3-2.5-3.3-4.7-4.7-7.1-1.1-.6-2.3-1.4-3.5-2-2-.6-3-2.7-4.1-4.3-.9-.1-3.4-9.9-3.4-10.2l.3-5.2c0-.9.7-8.1 1.7-8.9.4-.8-.4-2.1.9-2.6.9 0 1.8 0 2.7.6.6.3 7 2.3 9.5 4.1z"/></g></svg>